<?xml version="1.0" encoding="UTF-8" standalone="no"?>
<!-- Created with Inkscape (http://www.inkscape.org/) -->

<svg
   xmlns:dc="http://purl.org/dc/elements/1.1/"
   xmlns:cc="http://creativecommons.org/ns#"
   xmlns:rdf="http://www.w3.org/1999/02/22-rdf-syntax-ns#"
   xmlns:svg="http://www.w3.org/2000/svg"
   xmlns="http://www.w3.org/2000/svg"
   xmlns:xlink="http://www.w3.org/1999/xlink"
   xmlns:sodipodi="http://sodipodi.sourceforge.net/DTD/sodipodi-0.dtd"
   xmlns:inkscape="http://www.inkscape.org/namespaces/inkscape"
   id="svg2985"
   version="1.1"
   inkscape:version="0.48.4 r9939"
   width="1332.0695"
   height="166.54744"
   sodipodi:docname="louis_vuitton_logo.jpg">
  <metadata
     id="metadata2991">
    <rdf:RDF>
      <cc:Work
         rdf:about="">
        <dc:format>image/svg+xml</dc:format>
        <dc:type
           rdf:resource="http://purl.org/dc/dcmitype/StillImage" />
        <dc:title></dc:title>
      </cc:Work>
    </rdf:RDF>
  </metadata>
  <defs
     id="defs2989">
    <linearGradient
       id="linearGradient3081">
      <stop
         style="stop-color:#784421;stop-opacity:1;"
         offset="0"
         id="stop3083" />
      <stop
         style="stop-color:#bb7444;stop-opacity:0.52252251;"
         offset="1"
         id="stop3085" />
    </linearGradient>
    <clipPath
       clipPathUnits="userSpaceOnUse"
       id="clipPath3009">
      <rect
         style="fill:#1a1a1a;fill-opacity:0"
         id="rect3011"
         width="1465.11"
         height="260.73996"
         x="12.416184"
         y="1359.5723" />
    </clipPath>
    <clipPath
       clipPathUnits="userSpaceOnUse"
       id="clipPath3069">
      <rect
         style="fill:#1a1a1a;fill-opacity:0"
         id="rect3071"
         width="1334.74"
         height="173.82666"
         x="96.225433"
         y="1443.3815" />
    </clipPath>
    <linearGradient
       inkscape:collect="always"
       xlink:href="#linearGradient3081"
       id="linearGradient3087"
       x1="14.95128"
       y1="1655.2148"
       x2="16.055813"
       y2="1373.5585"
       gradientUnits="userSpaceOnUse" />
  </defs>
  <sodipodi:namedview
     pagecolor="#ffffff"
     bordercolor="#666666"
     borderopacity="1"
     objecttolerance="10"
     gridtolerance="10"
     guidetolerance="10"
     inkscape:pageopacity="0"
     inkscape:pageshadow="2"
     inkscape:window-width="1366"
     inkscape:window-height="706"
     id="namedview2987"
     showgrid="false"
     fit-margin-top="0"
     fit-margin-left="0"
     fit-margin-right="0"
     fit-margin-bottom="0"
     inkscape:zoom="0.90535819"
     inkscape:cx="655.6229"
     inkscape:cy="127.45513"
     inkscape:window-x="-8"
     inkscape:window-y="-8"
     inkscape:window-maximized="1"
     inkscape:current-layer="svg2985" />
  <path
     style="fill:url(#linearGradient3087);fill-opacity:1"
     d="m 712.09041,1597.9429 c -10.536,-25.1206 -33.7071,-81.2016 -49.94975,-120.8931 l -6.52712,-15.9502 7.10707,-0.7137 c 11.62285,-1.1673 12.5215,-0.6865 16.29705,8.717 13.42282,33.4316 38.53042,95.4596 38.72257,95.6638 0.24535,0.2607 19.50994,-47.0502 33.80112,-83.0106 l 8.23012,-20.7091 6.3712,-0.6782 c 8.93129,-0.9507 13.81453,-0.3659 13.4074,1.6058 -0.57528,2.786 -57.77638,141.6052 -60.57669,147.0112 -1.14221,2.2052 -1.70586,1.3008 -6.88297,-11.0429 z m 699.44109,6.3863 c -2.5446,-2.8089 -15.5767,-16.4654 -28.9604,-30.3479 -13.3834,-13.8826 -34.9603,-36.3628 -47.9486,-49.9561 -12.9882,-13.5933 -23.9745,-24.8729 -24.4138,-25.0657 -0.4393,-0.1927 -0.7987,23.3522 -0.7987,52.3225 l 0,52.6729 -8.827,0 c -6.8988,0 -8.96,-0.3467 -9.4359,-1.5869 -0.9614,-2.5052 -0.7131,-147.7554 0.2526,-147.7554 0.7443,0 23.6891,23.5327 55.8862,57.318 4.9613,5.206 14.4415,15.156 21.0674,22.1113 22.7012,23.8304 29.6513,30.9998 30.0514,30.9998 0.2201,0 0.4003,-23.3907 0.4003,-51.9793 l 0,-51.9794 8.6766,-0.3544 c 4.7721,-0.195 8.798,-0.3066 8.9466,-0.2483 0.1485,0.059 0.1485,33.5974 0,74.5309 l -0.2701,74.4249 -4.6266,-5.1069 z m -1170.52085,1.6944 c -15.63567,-2.1409 -29.10219,-8.4056 -40.24501,-18.7221 -16.77354,-15.5298 -24.32919,-32.9765 -24.21493,-55.9144 0.0657,-13.1913 2.23584,-21.6071 8.62793,-33.4592 13.43704,-24.9148 38.21802,-40.1865 65.14189,-40.1446 15.76865,0.025 27.66766,3.5326 41.03769,12.0992 15.14722,9.7054 25.28867,22.2856 30.86212,38.2837 4.9761,14.2836 5.17597,35.0653 0.46102,47.936 -4.82957,13.1838 -10.65373,21.9348 -20.93177,31.4506 -15.52338,14.3723 -38.8545,21.4673 -60.73894,18.4708 z m 24.34486,-18.4452 c 19.74261,-5.1159 36.1716,-21.7306 40.68987,-41.1496 5.33136,-22.9137 -3.43216,-47.9219 -21.24721,-60.6322 -10.64748,-7.5967 -19.35387,-10.2803 -33.20473,-10.2347 -15.89251,0.052 -27.07318,4.3204 -38.17861,14.5748 -19.43867,17.9492 -24.12979,45.3303 -11.78963,68.8135 12.4032,23.6034 38.27371,35.2246 63.73031,28.6282 z m 117.57205,18.3379 c -9.68927,-1.6072 -19.95187,-7.2967 -27.26713,-15.1167 -3.55638,-3.8019 -7.68405,-9.3159 -9.17261,-12.2534 -5.25581,-10.3718 -5.66138,-15.2589 -5.68115,-68.4561 l -0.0182,-49.1672 8.84878,0 8.84877,0 0.46506,48.1155 c 0.36678,37.9471 0.79303,49.338 2.01696,53.8999 4.76588,17.7639 14.82095,26.2607 31.35405,26.4951 8.63678,0.1225 14.2256,-1.4288 20.67375,-5.7381 4.14782,-2.772 5.87381,-4.9652 9.29988,-11.8175 l 4.20682,-8.4136 0.30969,-51.2707 0.30969,-51.2706 9.48208,0 9.48207,0 -0.4022,51.2706 c -0.35383,45.1058 -0.62507,52.0295 -2.25576,57.5809 -4.16521,14.18 -13.46909,25.3743 -26.14833,31.4617 -11.08302,5.321 -21.73798,6.7727 -34.35216,4.6802 z m 157.85931,-0.4195 c -16.4358,-3.5675 -29.69501,-17.689 -34.20287,-36.4271 -0.66012,-2.7439 -0.50128,-2.8471 6.94825,-4.5128 4.19309,-0.9376 8.3896,-1.9342 9.32559,-2.2144 1.3087,-0.3919 1.8617,0.4906 2.3942,3.8206 1.38839,8.6826 8.47399,18.3254 15.67696,21.3351 12.357,5.1631 24.11319,1.6425 32.13527,-9.6236 3.18107,-4.4673 4.47318,-9.0185 4.45405,-15.6883 -0.0199,-6.9132 -2.80268,-12.5222 -8.73628,-17.6083 -4.29171,-3.6788 -7.22985,-5.2533 -28.32208,-15.1768 -21.26745,-10.0059 -30.65917,-26.3223 -25.69889,-44.6472 4.40609,-16.2773 19.91341,-26.9862 39.07799,-26.9862 13.96568,0 26.94373,5.9184 34.82931,15.8835 1.91282,2.4171 3.47787,4.765 3.47787,5.2175 0,1.011 -11.58328,8.3466 -13.17959,8.3466 -0.63293,0 -2.5408,-1.4795 -4.23973,-3.2881 -4.59007,-4.886 -12.50438,-8.2593 -19.39041,-8.2645 -8.55146,-0.01 -13.21967,1.6891 -18.45139,6.702 -4.65088,4.4563 -4.68615,4.5441 -4.68615,11.6694 0,6.9842 0.11206,7.2857 4.12613,11.1043 2.59137,2.4651 11.29541,7.4476 23.40046,13.3951 21.6654,10.6449 28.41714,16.0111 33.37449,26.5257 2.42165,5.1365 2.72716,7.0865 2.72716,17.4077 0,11.3203 -0.10328,11.8323 -3.9606,19.6371 -6.35994,12.8684 -16.20267,20.328 -30.94367,23.4513 -8.63633,1.8301 -11.47291,1.8218 -20.13607,-0.059 z m 291.70401,0.4916 c -20.80911,-3.479 -37.17892,-19.1469 -41.46163,-39.6838 -0.75386,-3.6149 -1.16222,-23.1076 -1.16222,-55.4774 l 0,-49.9043 8.9395,0 8.93951,0 0,42.8846 c 0,58.1664 1.34905,67.1628 11.56753,77.1421 12.36622,12.0766 35.25004,11.4427 46.70115,-1.2938 9.76517,-10.8612 11.14394,-20.5606 11.14394,-78.3963 l 0,-40.4217 8.67658,0.3055 8.67657,0.3054 0.31067,41.5424 c 0.38756,51.8255 -0.87718,66.7441 -6.5483,77.2425 -7.56059,13.9959 -20.80632,23.1703 -37.40818,25.9098 -6.69029,1.1038 -11.06596,1.0671 -18.37512,-0.155 z m 360.70552,0 c -18.354,-1.4761 -31.4812,-7.705 -45.2458,-21.4696 -14.7679,-14.7679 -20.2701,-27.4416 -21.2531,-48.9533 -0.4589,-10.0468 -0.1832,-13.5865 1.6115,-20.6834 6.2615,-24.7608 23.5334,-43.6013 48.7181,-53.1426 8.3335,-3.1572 9.5995,-3.3391 23.5312,-3.3808 13.4789,-0.04 15.4354,0.2045 23.1376,2.8973 12.4514,4.3531 22.0297,10.4404 31.5832,20.0721 13.9469,14.0608 20.4936,30.2694 20.458,50.6502 -0.038,21.8005 -7.1568,39.5656 -21.385,53.3674 -16.4257,15.9334 -36.2997,22.6417 -61.1557,20.6427 z m 22.2243,-18.2213 c 25.9081,-6.8987 44.637,-33.9729 41.9127,-60.5887 -2.0283,-19.8161 -13.6575,-37.4185 -30.2062,-45.7208 -9.5458,-4.7891 -16.964,-6.1748 -29.7121,-5.5509 -17.6213,0.8625 -31.0566,7.7966 -41.2437,21.2864 -9.9546,13.1816 -13.9387,30.0594 -10.9261,46.2867 3.7096,19.9811 19.3411,37.0565 40.0633,43.7639 7.098,2.2974 22.4473,2.5641 30.1121,0.5234 z m -1101.80086,-55.2199 0,-71.4395 4.16033,-0.7028 c 5.34924,-0.9038 11.92322,-0.3919 12.91381,1.0055 0.42497,0.5994 0.77966,29.2494 0.78822,63.6665 l 0.0155,62.5765 21.82345,0 21.82347,0 0,7.8878 0,7.8878 -30.76241,0.2789 -30.76242,0.2788 0,-71.4395 z m 356.21697,70.7457 c -0.40712,-0.4072 -0.74021,-32.5564 -0.74021,-71.4426 0,-63.5011 0.16943,-70.7674 1.66357,-71.3408 2.41686,-0.9275 14.40779,-0.7522 15.95997,0.2332 1.0447,0.6633 1.26536,15.7202 1.05171,71.7629 l -0.27039,70.9234 -8.46223,0.302 c -4.65423,0.1662 -8.79532,-0.032 -9.20242,-0.4381 z m 448.33839,-70.8541 0,-71.5159 9.46536,0 9.46536,0 0,71.5159 0,71.5161 -9.46536,0 -9.46536,0 0,-71.5161 z m 66.25751,8.4391 0,-63.0768 -17.61608,-0.2884 -17.61609,-0.2885 -0.30715,-8.1506 -0.30718,-8.1507 86.85429,0 86.8541,0 -0.3071,8.1507 -0.3071,8.1506 -16.3014,0.2886 -16.3015,0.2885 0.2236,59.6587 c 0.1231,32.8123 -0.021,61.215 -0.3181,63.1171 l -0.5417,3.458 -9.1473,-0.3029 -9.1472,-0.3032 -0.2706,-63.1024 -0.2704,-63.1024 -34.1729,0.2912 -34.1729,0.2911 0,63.0742 0,63.0742 -8.41364,0 -8.41365,0 0,-63.077 z M 138.8608,1299.0433 c 0,-1.0429 11.68991,-32.0186 21.51838,-57.0191 l 6.05166,-15.3933 3.83106,-0.6336 c 2.10708,-0.3484 11.63998,-0.6433 21.18421,-0.6553 9.54424,-0.011 25.39871,-0.4888 35.23217,-1.0595 70.7177,-4.1049 116.81075,-14.6751 143.25952,-32.8527 13.85304,-9.5209 19.37746,-17.6501 24.48315,-36.0276 1.78018,-6.4076 42.50638,-116.8534 55.84469,-151.4458 11.10706,-28.80571 79.82992,-213.72574 79.82992,-214.807 0,-1.77947 -5.97142,-14.68043 -47.82989,-103.3342 -4.23326,-8.96579 -16.91904,-35.94206 -28.19062,-59.94726 -11.27157,-24.00519 -23.38798,-49.73649 -26.92536,-57.18066 -3.53738,-7.44415 -6.43159,-13.66163 -6.43159,-13.8166 0,-0.15496 -3.54951,-7.7085 -7.88779,-16.78562 -4.3383,-9.07713 -7.8878,-16.64046 -7.8878,-16.8074 0,-0.16693 -2.78177,-6.16334 -6.18169,-13.32533 -13.65583,-28.7662 -25.14537,-53.12092 -35.91225,-76.12422 -6.22709,-13.30408 -13.44914,-28.68528 -16.04902,-34.18045 -2.59987,-5.49517 -25.41403,-54.00512 -50.69814,-107.7999 -25.28409,-53.79478 -48.46598,-103.07484 -51.51529,-109.51125 -9.98722,-21.08068 -18.56113,-32.352 -32.4368,-42.64165 -14.46421,-10.72609 -33.77758,-18.63194 -55.98648,-22.91781 -12.34957,-2.38323 -40.18317,-5.29693 -50.59971,-5.29693 l -6.667174,0 0,-43.119963 0,-43.11996 198.772504,0 198.77249,0 0,42.89538 0,42.895403 -15.51266,1.26956 c -22.41081,1.83412 -33.99837,5.51298 -40.68825,12.91788 -5.11783,5.66484 -6.3669,11.01048 -4.38258,18.75607 1.55559,6.072 3.54317,9.93338 12.03033,23.37183 2.41794,3.82857 7.99851,14.71353 12.40125,24.18882 4.40273,9.4753 14.15618,30.47931 21.67433,46.6756 25.84061,55.66819 34.67381,74.68456 37.61627,80.98139 1.62178,3.47063 7.43752,16.01223 12.92383,27.87022 5.48633,11.85798 16.70787,35.99464 24.93674,53.63702 8.22889,17.64238 19.79702,42.48893 25.70697,55.21458 5.90993,12.72565 17.06623,36.744 24.79177,53.3741 7.72553,16.63011 14.31787,30.23655 14.64962,30.23655 0.52118,0 7.23463,-18.30417 24.10847,-65.73164 6.70337,-18.84117 33.66092,-94.02432 47.51438,-132.515 15.63616,-43.44382 16.77763,-47.32132 16.77763,-56.99286 0,-14.47853 -5.99185,-24.01777 -19.29341,-30.71577 -9.19034,-4.62778 -19.88388,-7.04273 -38.02458,-8.58717 -8.67658,-0.7387 -15.94406,-1.47088 -16.14995,-1.62706 -0.38508,-0.29211 8.68486,-25.92132 19.6856,-55.62627 l 6.23171,-16.82731 205.83405,-0.26556 c 195.79273,-0.25261 205.79683,-0.17565 205.07123,1.57756 -0.4195,1.01372 -6.6852,17.51379 -13.9236,36.66683 l -13.1608,34.8237 -15.3748,0.72872 c -58.11934,2.75465 -90.99924,13.03363 -110.86274,34.65811 -6.05301,6.58963 -13.08897,22.1337 -26.00652,57.4544 -6.4522,17.64237 -16.7019,45.56518 -22.77713,62.05068 -6.07521,16.48549 -17.89901,48.6677 -26.27509,71.51603 -8.37609,22.84832 -19.2459,52.42756 -24.15517,65.73165 -8.46312,22.93506 -16.1501,43.88975 -46.10382,125.6789 -29.15116,79.59775 -41.57744,114.25198 -41.57744,115.95061 0,1.4802 16.22488,38.70004 29.22683,67.04634 15.79401,34.4333 24.33316,53.1392 42.48871,93.076 11.57036,25.4513 21.38329,46.6432 21.8065,47.0931 0.42321,0.45 3.421,-5.4659 6.66173,-13.1463 3.24075,-7.6804 12.11344,-28.6357 19.7171,-46.5673 7.60367,-17.9316 20.13192,-47.5108 27.84057,-65.7317 7.70864,-18.2208 18.14375,-42.8307 23.18914,-54.68869 5.04538,-11.85799 10.2376,-24.16294 11.53826,-27.34436 2.14494,-5.24652 16.22527,-38.47248 58.60778,-138.29938 8.1042,-19.08848 17.21633,-40.62216 20.24916,-47.85264 3.03284,-7.23049 11.55733,-27.34436 18.94343,-44.69752 7.3861,-17.35316 15.9097,-37.46704 18.9413,-44.69752 3.0315,-7.23048 11.5435,-27.34437 18.9152,-44.69752 31.5131,-74.18178 33.4714,-78.80269 65.6275,-154.86377 41.9873,-99.31547 54.5075,-128.15543 59.4691,-136.98474 15.2643,-27.16375 18.0277,-39.03481 12.1717,-52.28793 -2.4983,-5.65381 -10.8062,-14.563443 -16.2807,-17.459653 -16.3397,-8.64429 -40.2542,-13.75688 -69.9644,-14.95745 -8.3873,-0.33893 -16.3146,-0.83195 -17.6161,-1.0956 l -2.3663,-0.47937 0,-38.36725 0,-38.36724029 171.4411,0 171.4411,0 -0.2759,38.65021029 -0.2759,38.65021 -12.6205,0.76521 c -52.1111,3.15961 -89.4674,18.58972 -114.2034,47.171793 -11.7668,13.59659 -14.6687,19.0457 -32.6641,61.33808 -8.146,19.14477 -24.8838,58.47208 -37.1949,87.394 -12.3111,28.92193 -24.3765,57.318 -26.8121,63.10238 -2.4354,5.78439 -5.2627,12.41014 -6.2827,14.72389 -1.0202,2.31375 -6.4646,15.09199 -12.0988,28.39607 -5.6344,13.30409 -18.4154,43.3566 -28.4026,66.78336 -9.987,23.42675 -20.7691,48.74659 -23.9602,56.26629 -3.191,7.51969 -12.065,28.34349 -19.7199,46.27508 -7.6551,17.93159 -15.6902,36.86231 -17.8562,42.06825 -2.1658,5.20595 -18.2545,43.06738 -35.7526,84.13651 -17.4981,41.06914 -34.2983,80.587 -37.3339,87.81748 -3.0355,7.23048 -19.1304,45.09192 -35.76623,84.13652 -16.63587,39.0446 -32.0191,75.2496 -34.18494,80.4555 -2.16586,5.206 -18.24271,43.0674 -35.72634,84.13661 -28.26464,66.3937 -43.89358,103.2102 -55.44553,130.6109 -1.99715,4.7372 -4.18741,9.0248 -4.86725,9.5283 -0.68695,0.5086 -34.18382,0.7204 -75.40324,0.4767 l -74.16723,-0.4383 -32.56151,-65.0533 c -19.43456,-38.8275 -32.86368,-64.5134 -33.31103,-63.7139 -0.41224,0.7366 -15.24737,40.1182 -32.96698,87.5146 -17.7196,47.3963 -34.54703,92.3668 -37.3943,99.9343 -2.84727,7.5673 -5.17685,14.0845 -5.17685,14.4825 0,0.3982 120.32835,0.5645 267.39634,0.3698 295.91119,-0.3919 272.79519,0.1579 298.94759,-7.1104 12.7324,-3.5386 36.5647,-14.498 48.9496,-22.5098 31.3273,-20.2655 64.3908,-53.4105 91.6036,-91.8294 22.6525,-31.9806 45.8916,-72.9692 68.8558,-121.44691 l 9.3413,-19.7195 41.2685,0 41.2685,0 -2.4749,5.5214 c -1.3612,3.0368 -6.268,13.5671 -10.9042,23.4005 -8.1658,17.32021 -36.4601,77.55651 -44.461,94.65361 -11.603,24.7949 -29.8253,63.5235 -42.8036,90.9727 -8.0679,17.0639 -24.0449,50.9025 -35.5041,75.1969 -11.4593,24.2945 -21.2976,44.7633 -21.863,45.4864 -0.8201,1.0487 -115.6254,1.3145 -567.76884,1.3145 -344.61521,0 -566.74096,-0.3795 -566.74096,-0.9684 z"
     id="path3013"
     inkscape:connector-curvature="0"
     clip-path="url(#clipPath3069)"
     transform="translate(-98.895956,-1443.3815)" />
</svg>
